Coordinates
version=1
nRows=32
nColumns=12
inDegrees=yes

Units are S.I. units (second, meters, Newtons, ...)
Angles are in degrees

endheader
time	SC_y	SC_z	SC_x	AC_y	AC_z	AC_x	GH_y	GH_z	GH_yy	EL_x	PS_y
       0.0              -42.94          38.14          59.32          49.79         -13.98          1.037          8.257          31.36          133.2          45.95          125.1
   0.03148              -42.94          38.13          59.32          49.79         -13.98          1.035          8.264          31.36          133.2          45.94          125.1
   0.06297              -42.94          38.13          59.32          49.79         -13.98          1.034          8.271          31.36          133.1          45.93          125.0
   0.09445              -42.94          38.13          59.32          49.78         -13.98          1.032          8.279          31.36          133.1          45.93          125.0
    0.1259              -42.94          38.13          59.32          49.78         -13.98          1.029          8.287          31.36          133.0          45.92          125.0
    0.1574              -42.94          38.13          59.33          49.78         -13.98          1.027          8.296          31.35          133.0          45.91          125.0
    0.1889              -42.95          38.12          59.33          49.78         -13.98          1.025          8.305          31.35          132.9          45.91          125.0
    0.2204              -42.95          38.12          59.33          49.78         -13.99          1.022          8.315          31.35          132.9           45.9          125.0
    0.2519              -42.95          38.12          59.33          49.78         -13.99           1.02          8.326          31.34          132.8          45.89          125.0
    0.2834              -42.95          38.12          59.33          49.77         -13.99          1.017          8.337          31.34          132.8          45.88          125.0
    0.3148              -42.96          38.11          59.34          49.77         -13.99          1.014           8.35          31.34          132.7          45.87          124.9
    0.3463              -42.96          38.11          59.34          49.77         -13.99           1.01          8.363          31.33          132.6          45.86          124.9
    0.3778              -42.96          38.11          59.34          49.77         -13.99          1.007          8.377          31.33          132.5          45.85          124.9
    0.4093              -42.96           38.1          59.34          49.76         -13.99          1.003          8.392          31.32          132.4          45.84          124.9
    0.4408              -42.97           38.1          59.35          49.76         -13.99         0.9983          8.409          31.32          132.4          45.82          124.9
    0.4723              -42.97          38.09          59.35          49.76          -14.0         0.9937          8.427          31.31          132.2          45.81          124.8
    0.5037              -42.97          38.09          59.35          49.75          -14.0         0.9887          8.447          31.31          132.1          45.79          124.8
    0.5352              -42.98          38.08          59.36          49.75          -14.0         0.9833          8.468           31.3          132.0          45.78          124.8
    0.5667              -42.98          38.08          59.36          49.74          -14.0         0.9773          8.492           31.3          131.9          45.76          124.7
    0.5982              -42.99          38.07          59.37          49.74         -14.01         0.9708          8.517          31.29          131.7          45.74          124.7
    0.6297              -42.99          38.06          59.37          49.73         -14.01         0.9636          8.545          31.28          131.6          45.71          124.7
    0.6612               -43.0          38.06          59.38          49.73         -14.01         0.9557          8.576          31.27          131.4          45.69          124.6
    0.6927              -43.01          38.05          59.38          49.72         -14.01          0.947          8.611          31.26          131.2          45.66          124.6
    0.7241              -43.02          38.04          59.39          49.71         -14.02         0.9373          8.648          31.25          131.0          45.63          124.5
    0.7556              -43.02          38.03           59.4          49.71         -14.02         0.9266           8.69          31.24          130.8           45.6          124.5
    0.7871              -43.03          38.02          59.41           49.7         -14.03         0.9146          8.737          31.22          130.5          45.56          124.4
    0.8186              -43.04           38.0          59.42          49.69         -14.03         0.9012           8.79          31.21          130.2          45.52          124.3
    0.8501              -43.06          37.99          59.43          49.68         -14.04         0.8861          8.849          31.19          129.9          45.47          124.3
    0.8816              -43.07          37.97          59.44          49.66         -14.04          0.869          8.916          31.17          129.5          45.42          124.2
     0.913              -43.08          37.95          59.45          49.65         -14.05         0.8496          8.992          31.15          129.1          45.35          124.1
    0.9445               -43.1          37.93          59.47          49.63         -14.06         0.8275          9.079          31.12          128.6          45.28          124.0
     0.976              -43.12          37.91          59.49          49.61         -14.07         0.8021          9.178          31.09          128.0           45.2          123.8
